<svg id="visual" viewBox="0 0 960 540" width="960" height="540" xmlns="http://www.w3.org/2000/svg" xmlns:xlink="http://www.w3.org/1999/xlink" version="1.1"><rect x="0" y="0" width="960" height="540" fill="#001220"></rect><defs><linearGradient id="grad1_0" x1="43.8%" y1="0%" x2="100%" y2="100%"><stop offset="14.444444444444446%" stop-color="#fbae3c" stop-opacity="1"></stop><stop offset="85.55555555555554%" stop-color="#fbae3c" stop-opacity="1"></stop></linearGradient></defs><defs><linearGradient id="grad1_1" x1="43.8%" y1="0%" x2="100%" y2="100%"><stop offset="14.444444444444446%" stop-color="#fbae3c" stop-opacity="1"></stop><stop offset="85.55555555555554%" stop-color="#cc5867" stop-opacity="1"></stop></linearGradient></defs><defs><linearGradient id="grad1_2" x1="43.8%" y1="0%" x2="100%" y2="100%"><stop offset="14.444444444444446%" stop-color="#593762" stop-opacity="1"></stop><stop offset="85.55555555555554%" stop-color="#cc5867" stop-opacity="1"></stop></linearGradient></defs><defs><linearGradient id="grad1_3" x1="43.8%" y1="0%" x2="100%" y2="100%"><stop offset="14.444444444444446%" stop-color="#593762" stop-opacity="1"></stop><stop offset="85.55555555555554%" stop-color="#001220" stop-opacity="1"></stop></linearGradient></defs><defs><linearGradient id="grad2_0" x1="0%" y1="0%" x2="56.3%" y2="100%"><stop offset="14.444444444444446%" stop-color="#fbae3c" stop-opacity="1"></stop><stop offset="85.55555555555554%" stop-color="#fbae3c" stop-opacity="1"></stop></linearGradient></defs><defs><linearGradient id="grad2_1" x1="0%" y1="0%" x2="56.3%" y2="100%"><stop offset="14.444444444444446%" stop-color="#cc5867" stop-opacity="1"></stop><stop offset="85.55555555555554%" stop-color="#fbae3c" stop-opacity="1"></stop></linearGradient></defs><defs><linearGradient id="grad2_2" x1="0%" y1="0%" x2="56.3%" y2="100%"><stop offset="14.444444444444446%" stop-color="#cc5867" stop-opacity="1"></stop><stop offset="85.55555555555554%" stop-color="#593762" stop-opacity="1"></stop></linearGradient></defs><defs><linearGradient id="grad2_3" x1="0%" y1="0%" x2="56.3%" y2="100%"><stop offset="14.444444444444446%" stop-color="#001220" stop-opacity="1"></stop><stop offset="85.55555555555554%" stop-color="#593762" stop-opacity="1"></stop></linearGradient></defs><g transform="translate(960, 0)"><path d="M0 324C-22.7 303.3 -45.4 282.5 -75.1 280.1C-104.7 277.7 -141.4 293.7 -162 280.6C-182.6 267.5 -187 225.3 -196.6 196.6C-206.2 167.9 -221 152.8 -233 134.5C-244.9 116.2 -253.8 94.9 -268.5 72C-283.2 49 -303.6 24.5 -324 0L0 0Z" fill="#232745"></path><path d="M0 243C-17 227.4 -34 211.9 -56.3 210.1C-78.6 208.3 -106.1 220.3 -121.5 210.4C-136.9 200.6 -140.2 168.9 -147.4 147.4C-154.7 125.9 -165.8 114.6 -174.7 100.9C-183.7 87.2 -190.4 71.2 -201.4 54C-212.4 36.8 -227.7 18.4 -243 0L0 0Z" fill="#96446e"></path><path d="M0 162C-11.3 151.6 -22.7 141.3 -37.5 140.1C-52.4 138.9 -70.7 146.9 -81 140.3C-91.3 133.7 -93.5 112.6 -98.3 98.3C-103.1 83.9 -110.5 76.4 -116.5 67.3C-122.4 58.1 -126.9 47.4 -134.3 36C-141.6 24.5 -151.8 12.3 -162 0L0 0Z" fill="#f17c53"></path><path d="M0 81C-5.7 75.8 -11.3 70.6 -18.8 70C-26.2 69.4 -35.4 73.4 -40.5 70.1C-45.6 66.9 -46.7 56.3 -49.1 49.1C-51.6 42 -55.3 38.2 -58.2 33.6C-61.2 29.1 -63.5 23.7 -67.1 18C-70.8 12.3 -75.9 6.1 -81 0L0 0Z" fill="#fbae3c"></path></g><g transform="translate(0, 540)"><path d="M0 -324C22 -301.5 44.1 -279 74.3 -277.2C104.5 -275.5 142.9 -294.5 162 -280.6C181.1 -266.7 180.9 -219.8 191.6 -191.6C202.4 -163.5 224.2 -154.2 238.2 -137.5C252.2 -120.8 258.4 -96.9 271.4 -72.7C284.4 -48.6 304.2 -24.3 324 0L0 0Z" fill="#232745"></path><path d="M0 -243C16.5 -226.1 33 -209.2 55.7 -207.9C78.4 -206.6 107.2 -220.9 121.5 -210.4C135.8 -200 135.6 -164.8 143.7 -143.7C151.8 -122.6 168.1 -115.6 178.6 -103.1C189.1 -90.6 193.8 -72.6 203.6 -54.5C213.3 -36.4 228.2 -18.2 243 0L0 0Z" fill="#96446e"></path><path d="M0 -162C11 -150.7 22 -139.5 37.1 -138.6C52.3 -137.7 71.5 -147.3 81 -140.3C90.5 -133.3 90.4 -109.9 95.8 -95.8C101.2 -81.8 112.1 -77.1 119.1 -68.8C126.1 -60.4 129.2 -48.4 135.7 -36.4C142.2 -24.3 152.1 -12.1 162 0L0 0Z" fill="#f17c53"></path><path d="M0 -81C5.5 -75.4 11 -69.7 18.6 -69.3C26.1 -68.9 35.7 -73.6 40.5 -70.1C45.3 -66.7 45.2 -54.9 47.9 -47.9C50.6 -40.9 56 -38.5 59.5 -34.4C63 -30.2 64.6 -24.2 67.9 -18.2C71.1 -12.1 76.1 -6.1 81 0L0 0Z" fill="#fbae3c"></path></g></svg>